<svg width="186" height="144" viewBox="0 0 186 144" fill="none" xmlns="http://www.w3.org/2000/svg">
<path d="M22 24.5C18.8 22.9 15 23.5 13.5 24L20 30.5L26.5 37.5L30.5 38L26 43L22 61.5L20.5 70L24 69.5L30 66.5L33 64L34.5 60L36 53.5L38.5 46.5L40.5 42L42.5 39L43.5 39.5L43 45L42 49.5V65L44.5 69.5L47.5 73.5L54 77.5L42.5 99.5L41.5 102C41.6667 102.833 41.8 105 41 107C40 109.5 35.5 109 35 109.5C34.6 109.9 31.1667 110.667 29.5 111C28.6667 111.167 26.4 111.7 24 112.5C21.6 113.3 20.3333 115.833 20 117C19.8333 118.167 19.6 120.7 20 121.5C20.4 122.3 22.5 124.5 23.5 125.5L30.5 124.5L38 126.5L47.5 128.5L66 131.5L83 129.5L78 116L81 109.5C81.6667 107.667 84.9 104.7 86.5 101.5C88.1 98.3 91 93.8333 92.5 92.5L94.5 86L100 78L107.5 72.5L121 71L133 74L141.5 82.5L146 72.5L154 66.5L164.5 65.5L176.5 71L172.5 64L161.5 52.5L143.5 41.5L116 39.5L97 45L78 52.5C77.5 52.5 74.5 50 74 49C73.5 48 71.5 45.1667 72 44L76.5 31L83.5 19L92.5 8.5V3.5L79.5 12L72 21L65.5 25.5H54C53.2 25.5 41 29.8333 35 32C32 30.1667 25.2 26.1 22 24.5Z" fill="#F4B670"/>
<path d="M12 46.5C11.1667 43.1667 9.5 34.3 9.5 25.5H13.5L22.5 32L28 39.5L19.5 59L15 53.5L12 46.5Z" fill="#FFF7F1"/>
<path d="M43 45V39.5H42.5L40.5 42L38 47L34 62L32 65C31.1667 65.6667 29.2 67.1 28 67.5L23.5 70L20.5 69L9.5 74L5.5 85.5L9.5 94L23.5 101.5H36.5L42 99.5L46 91.5L53 78L46 71.5L42 65L41 55.5L43 45Z" fill="#FFF7F1"/>
<path d="M87 14L96.5 3L100.5 8.5V17L99 39L97 44C93 46 84.8 50.8 80 52C77.5 52.5 76 52 74 50.5C72.6806 49.5105 71.8333 46.3333 72 45L77.5 28.5L87 14Z" fill="#FFF7F1"/>
<path d="M129 72.5L142 82.5L144 77.5C145.333 74.3333 148.6 67.7 151 66.5C154 65 157 65.5 162.5 65C166.9 64.6 172 67.5 174 69C175.167 70.3333 178.1 74 180.5 78C182.9 82 183.5 90.6667 183.5 94.5L180.5 116L182.5 125L179.5 133.5L169.5 136.5L161.5 128.5L156.5 131L152.5 132.5L146 131L143.5 128.5L140.5 131L136.5 132.5L132 133.5L130.5 136L127 140.5L118.5 139.5L111 135H90.5L79.5 121.5L81.5 109C85.0161 99.9596 87.4173 95.3722 94 89.5L101.5 79L107 74.5L117.5 71.5L129 72.5Z" fill="#FFF7F1"/>
<ellipse cx="120.31" cy="124.887" rx="4.73146" ry="5.20677" transform="rotate(-22.3057 120.31 124.887)" fill="#FFA2A2"/>
<ellipse cx="169.887" cy="120.97" rx="4.73146" ry="5.20677" transform="rotate(-22.3057 169.887 120.97)" fill="#FFA2A2"/>
<circle cx="118.262" cy="132.987" r="1.75" transform="rotate(-26.6256 118.262 132.987)" fill="#FFA2A2"/>
<circle cx="122.959" cy="134.889" r="1.75" transform="rotate(-26.6256 122.959 134.889)" fill="#FFA2A2"/>
<circle cx="126.663" cy="131.048" r="1.75" transform="rotate(-26.6256 126.663 131.048)" fill="#FFA2A2"/>
<circle cx="167.485" cy="128.689" r="1.75" transform="rotate(-26.6256 167.485 128.689)" fill="#FFA2A2"/>
<circle cx="172.68" cy="129.469" r="1.75" transform="rotate(-26.6256 172.68 129.469)" fill="#FFA2A2"/>
<circle cx="176.5" cy="126.34" r="1.75" transform="rotate(-26.6256 176.5 126.34)" fill="#FFA2A2"/>
<path d="M95.5121 0.697067C92.34 1.18672 85.7404 4.76327 80.8652 8.70175C77.1396 11.6822 72.2432 16.9406 68.326 22.1564C67.0273 23.8383 66.9422 23.9234 66.3035 23.7744C63.323 23.1357 57.7666 23.0506 54.3816 23.5828C48.2504 24.5408 42.3107 26.6484 36.7543 29.8205C36.1795 30.1611 36.1582 30.1398 35.0512 29.0754C32.8371 26.9252 30.6443 25.7543 25.535 24.0086C20.5533 22.2842 17.4451 21.6881 13.6982 21.6668C11.0371 21.6455 10.6326 21.6881 9.86621 22.1139C6.39609 23.9873 5.6084 28.4154 7.20508 37.2078C8.88691 46.4473 12.0803 53.2598 17.3387 58.7949C18.6373 60.1787 18.6373 60.1787 18.8076 61.7541C18.9354 63.1805 19.2973 65.4584 19.6592 67.2254C19.8082 67.8641 19.8082 67.8641 17.7006 68.8008C15.0182 69.9717 13.3789 70.5039 8.26953 71.8025C5.9916 72.3986 3.71367 73.016 3.20273 73.2076C1.26543 73.9314 0.605469 75.294 0.605469 78.5512C0.605469 84.1502 2.22344 89.6002 4.92715 93.1768C9.07852 98.6693 16.1678 102.48 23.4912 103.183C24.3215 103.268 25.2795 103.396 25.6201 103.459C26.7059 103.694 34.0506 103.587 35.4982 103.31C37.0523 103.012 39.2451 102.288 39.9477 101.841C40.2031 101.671 40.4799 101.565 40.5225 101.629C40.6289 101.735 40.2457 105.056 40.0328 105.844C39.9051 106.291 39.5006 106.504 37.3291 107.27C35.775 107.802 33.5184 108.398 31.5811 108.739C27.5787 109.442 24.1086 110.357 22.5758 111.123C19.574 112.592 17.7857 115.594 17.8283 119.128C17.8709 122.811 19.6379 126.281 22.1287 127.559C24.4279 128.751 27.7916 128.942 29.665 127.963L30.7295 127.431L32.0494 128.048C33.6035 128.751 34.2848 128.793 37.7975 128.41L40.3947 128.133L41.374 128.793C43.5029 130.198 50.2516 131.923 57.3621 132.86C66.8996 134.137 76.9693 133.86 82.1852 132.2L83.5902 131.753L84.9527 132.923C90.1473 137.394 95.4695 139.246 102.474 138.991C106.178 138.842 107.349 138.522 109.371 137.117L110.947 136.01L111.905 137.16C115.417 141.354 118.909 143.419 122.805 143.674C127.616 143.994 131.405 141.205 133.258 135.968L133.62 134.903H135.514C138.154 134.882 140.113 134.03 142.604 131.859L143.668 130.922L144.477 131.561C146.308 133.009 148.564 133.839 151.566 134.158C154.717 134.478 158.102 133.775 159.358 132.519L160.039 131.838L161.061 133.051C163.893 136.436 167.32 138.331 171.088 138.565C175.985 138.906 180.541 135.819 182.627 130.816C183.691 128.261 183.968 126.601 183.84 123.301C183.755 120.938 183.628 120.107 183.159 118.617C182.84 117.617 182.563 116.51 182.563 116.169C182.563 115.807 182.861 114.466 183.223 113.188C185.288 105.908 186.033 96.6043 185.182 88.919C184.33 81.2336 181.733 72.9947 178.114 66.5654C175.58 62.0734 172.877 58.5607 168.81 54.5158C152.886 38.6555 127.68 33.2693 102.325 40.3586C100.579 40.8482 100.451 40.8482 100.451 40.4863C100.451 40.2734 100.92 38.8258 101.473 37.2717C102.857 33.4609 103.134 32.3539 103.559 29.0967C103.815 27.1807 103.921 24.775 103.943 21.2197C103.943 15.3227 103.623 13.0022 102.154 8.53145C101.324 5.97676 99.6848 2.44277 99.0035 1.67636C98.2371 0.803509 97.0023 0.462888 95.5121 0.697067ZM97.6836 8.91464C98.4713 11.7461 98.7268 13.066 98.9396 15.7484C99.1312 18.0264 98.9396 24.8389 98.5352 29.8418C98.152 34.3764 96.832 41.7637 96.3424 42.1469C96.1934 42.2533 95.0437 42.743 93.7451 43.2326C90.3602 44.5525 83.7818 47.8311 80.4395 49.8535C78.8641 50.8115 77.2248 51.8121 76.8203 52.0463C75.6281 52.7488 70.7316 56.4318 68.5176 58.2627C65.8352 60.5193 59.6613 66.6719 57.4686 69.333C56.4893 70.5039 55.0203 72.3986 54.1687 73.527C53.3385 74.6766 52.5508 75.592 52.423 75.6133C52.1463 75.6133 48.8039 72.9947 47.484 71.6961C45.6105 69.9078 43.6732 66.2674 43.0559 63.4572C42.3746 60.2 42.5023 55.3674 43.5029 48.1504C44.1629 43.2539 44.248 42.5514 44.248 41.1037C44.248 39.1451 43.8648 38.3574 42.9068 38.3574C41.6934 38.3574 40.267 40.5502 37.9891 45.8512C36.7117 48.8529 35.7111 52.1102 34.6467 56.7725C33.4758 61.8818 32.9223 63.3082 31.5811 64.6707C31.0062 65.2455 29.8566 66.1184 29.0264 66.5654C27.4723 67.4383 23.6828 68.8008 22.8312 68.8008C22.3842 68.8008 22.3416 68.7582 22.5545 68.226C22.6609 67.9066 22.9377 66.608 23.1719 65.3307C23.5764 62.9037 24.0234 61.8818 24.0234 63.3295C24.0234 64.2023 24.4918 65.4797 25.024 66.0758C25.4072 66.5229 26.5568 66.7783 27.1955 66.5654C27.8555 66.3738 28.2174 65.6926 28.707 63.883C29.2818 61.7541 29.2818 59.1356 28.707 58.2201C28.0045 57.0492 26.1949 57.0066 25.0027 58.1137L24.3854 58.6885L24.5344 57.5176C25.0453 53.3236 27.3658 46.9582 29.6863 43.2965C35.3066 34.4615 47.484 28.3516 61.9818 27.0529C63.4934 26.9252 64.7707 26.8613 64.8133 26.9252C64.8559 26.9678 64.4727 27.9258 63.9404 29.0328C62.7482 31.4598 62.4928 33.0777 63.1314 33.8654C63.4934 34.2912 63.5998 34.3338 64.0043 34.1209C64.2811 33.9719 65.0262 33.0352 65.6648 32.0133C68.2834 27.9471 70.6252 24.5834 72.2645 22.5184C75.841 18.0902 80.2691 13.6621 83.8031 11.0435C85.8682 9.48945 90.424 6.65801 90.8498 6.63672C90.9988 6.63672 90.3389 7.50957 89.3596 8.55273C86.6771 11.448 85.4637 12.8744 83.4199 15.5994C80.1627 19.9637 78.3744 23.2848 75.692 30.0547C72.967 36.9311 72.158 39.5922 71.6258 43.1475C71.3277 45.1912 71.4342 45.8086 72.1154 45.8086C72.6902 45.8086 72.8818 45.468 73.4141 43.4668C74.734 38.4852 77.8635 31.4172 81.2484 25.7969C84.6547 20.1127 87.4861 16.1529 92.1059 10.6391C93.5961 8.85077 95.1076 6.99863 95.4482 6.53027C95.8102 6.06191 96.1721 5.61483 96.2998 5.52968C96.5553 5.33808 96.9385 6.25351 97.6836 8.91464ZM18.8289 26.4355C22.3629 27.1594 27.7916 28.9477 30.6869 30.3102C32.1771 31.034 33.3906 31.6727 33.3906 31.7365C33.3906 31.8217 32.4752 32.6307 31.3469 33.5674C30.2186 34.4828 29.0477 35.5686 28.7283 35.9518C28.4303 36.335 28.0684 36.6543 27.9406 36.6543C27.8129 36.6543 27.2381 36.0582 26.6633 35.3131C24.3641 32.3965 18.9353 27.4574 17.0619 26.5846C16.7852 26.4568 16.5723 26.2865 16.5723 26.1801C16.5723 25.9672 16.402 25.9459 18.8289 26.4355ZM16.9129 30.6934C20.3191 33.1842 23.7467 36.1221 25.173 37.8039L26.1949 38.9961L25.1305 40.5502C22.5332 44.3184 20.085 50.5561 19.4463 55.0693C19.1908 56.7299 19.0418 56.8576 18.4244 55.8996C16.4871 52.8127 13.7834 45.7234 12.3145 39.8902C11.101 34.9938 10.5687 31.9494 10.5262 29.6289C10.4836 26.4355 10.4836 26.4568 12.4209 27.6277C13.2937 28.16 15.3162 29.5437 16.9129 30.6934ZM41.7998 44.3609C40.6502 50.2367 40.416 51.9611 40.267 56.0699C40.0754 61.4135 40.5437 64.4152 42.0766 67.7789C43.7158 71.3768 46.0363 74.0592 49.3574 76.1668C50.4219 76.8268 51.2734 77.4654 51.2734 77.5719C51.2734 77.6996 51.1031 78.0402 50.8689 78.3383C48.1865 82.1916 44.3545 90.0898 42.332 95.9018C41.7572 97.541 41.6721 97.6688 40.6928 98.2223C38.1807 99.6486 37.1162 99.9254 33.9229 99.9041C31.4107 99.9041 27.8555 99.5422 27.5787 99.2654C27.4723 99.159 27.9193 98.7971 28.5367 98.4565C29.1541 98.0945 30.176 97.3494 30.7934 96.7959C31.7514 95.9231 31.9217 95.6889 31.8578 95.1141C31.7727 94.1774 31.1127 94.1561 29.8354 95.0502C27.8342 96.4979 24.3215 97.7539 22.2777 97.7539C19.723 97.7539 14.2518 94.9225 11.1648 92.0272C9.93008 90.8563 8.69531 89.3447 8.69531 89.0041C8.69531 88.919 9.03594 88.6635 9.44043 88.4719C12.2719 87.1307 14.3156 83.2561 13.9324 79.935C13.7834 78.5938 13.1021 76.699 12.5061 75.9539C12.2506 75.6346 12.1016 75.2727 12.1654 75.1236C12.2293 74.9746 12.9105 74.634 13.6982 74.3572C15.593 73.6973 17.8283 72.5902 19.3824 71.5684C20.2553 70.9723 20.8727 70.7168 21.3836 70.7168C22.5332 70.7168 25.024 70.0994 26.791 69.3756C28.7496 68.5879 30.3037 67.5873 31.943 66.0758C33.7312 64.4152 34.4338 62.8186 35.8389 57.1557C37.2652 51.4289 37.9678 49.3 39.5857 45.5318C41.1824 41.8914 42.2043 40.0605 42.4811 40.3586C42.5449 40.4012 42.2256 42.2107 41.7998 44.3609ZM133.236 42.7004C143.817 44.2971 152.567 47.8523 160.359 53.6855C162.828 55.5377 166.979 59.4762 168.874 61.7541C170.364 63.585 172.366 66.31 172.557 66.8209C172.642 67.0338 171.94 66.757 170.684 66.0758C168.257 64.7771 165.447 63.8191 163.041 63.4572C160.784 63.1379 157.144 63.3295 154.76 63.9043C148.969 65.3094 144.2 70.1633 141.944 76.9545C141.582 78.0402 141.241 78.9557 141.22 78.9982C141.177 79.0195 140.432 78.3596 139.58 77.4867C136.004 73.8676 131.086 71.3768 124.508 69.8227C122.762 69.4182 121.868 69.3543 117.908 69.3543C113.842 69.333 113.118 69.3969 111.415 69.8227C109.073 70.4188 105.326 72.207 103.325 73.7186C99.6848 76.4436 96.2146 80.893 93.7664 85.9172C91.7865 90.026 91.4246 91.1543 91.4246 93.6025C91.4246 95.1141 91.531 95.9443 91.7652 96.4766C92.1697 97.3494 92.2123 97.2856 92.6807 95.0076C93.298 91.9846 94.5754 89.3447 97.5346 84.8953C101.069 79.5731 106.348 75.2727 111.245 73.6973C117.653 71.6322 126.488 72.9096 133.13 76.8481C135.323 78.1467 138.218 80.9781 139.261 82.8729C140.326 84.7889 140.922 85.2998 142.029 85.2785C143.412 85.2359 143.838 84.5547 144.796 80.7865C146.84 72.7393 150.842 68.2686 156.995 67.2041C163.488 66.0758 169.726 68.1621 175.346 73.3779C176.815 74.7404 177.39 75.6772 178.241 78.2744C180.498 85.0231 181.456 92.751 180.966 100.16C180.732 103.757 179.902 109.399 179.434 110.613L179.199 111.23L178.305 110.378C175.474 107.632 171.748 106.248 167.916 106.546C165.83 106.695 164.51 107.142 162.871 108.207C157.591 111.677 155.483 119.788 157.953 127.197C158.294 128.24 158.57 129.155 158.57 129.24C158.57 129.624 154.845 130.539 153.333 130.539C150.289 130.539 147.181 129.304 145.797 127.559C144.626 126.09 142.944 126.217 142.071 127.857C140.837 130.198 137.047 132.625 134.918 132.413L134.194 132.349L134.067 129.666C133.705 122.045 129.34 114.679 123.465 111.741L121.52 110.792L120.121 110.5H118.5C115.136 110.543 114.821 110.868 113.501 111.549C110.138 113.295 107.817 117.255 107.37 122.066C107.115 124.855 107.817 128.964 109.116 132.2C109.456 133.072 109.584 133.626 109.456 133.754C109.18 134.03 105.241 134.265 101.196 134.243C95.6186 134.222 92.3613 133.03 88.1674 129.475C85.4424 127.133 84.5057 125.77 82.5258 121.172C81.0568 117.766 80.6949 114.551 81.5039 111.996C81.951 110.549 83.4199 107.951 84.5269 106.653C84.8889 106.206 85.1443 105.78 85.0592 105.716C84.8037 105.461 83.0367 106.27 81.9936 107.121C79.673 108.952 78.0338 111.762 77.3738 115.041C76.6287 118.681 77.2887 122.279 79.5027 126.728L80.2053 128.155L79.524 128.304C79.1408 128.368 75.7133 128.495 71.9025 128.559C63.4082 128.687 59.8104 128.41 45.0996 126.473C44.099 126.345 42.9494 126.111 42.5449 125.962C42.1404 125.792 40.9695 125.621 39.9689 125.557C36.7543 125.366 34.5615 124.621 33.0713 123.216C31.8578 122.066 31.1766 122.023 29.3031 123.067C27.4936 124.046 26.493 124.174 24.875 123.556C23.6615 123.088 23.108 122.236 22.6184 120.193C22.299 118.83 22.2777 118.447 22.5119 117.595C22.8525 116.318 23.5551 115.403 24.7473 114.7C25.2795 114.381 27.898 113.508 30.5592 112.741C37.4781 110.783 40.1393 109.74 43.7158 107.589C45.6531 106.44 48.3355 104.354 48.2291 104.077C48.0801 103.63 46.1428 103.821 44.6738 104.417C43.9287 104.715 43.29 104.95 43.2475 104.907C43.2049 104.886 43.7158 103.225 44.3758 101.245C47.2498 92.4955 50.5283 85.9811 56.1061 77.9551C58.384 74.6766 63.7701 68.5879 67.0699 65.5648C81.1207 52.6637 98.301 44.5313 115.566 42.6152C116.673 42.5088 117.887 42.3598 118.228 42.3172C119.846 42.083 131.107 42.3811 133.236 42.7004ZM171.876 110.719C174.367 111.89 176.368 113.955 177.794 116.808C180.221 121.725 179.646 128.495 176.496 131.731C175.24 133.051 173.622 133.732 171.812 133.732C171.024 133.732 169.939 133.583 169.406 133.413C165.447 132.029 162.126 126.963 161.636 121.534C161.487 119.831 161.806 117.34 162.338 115.85C163.999 111.315 168.299 109.016 171.876 110.719ZM119.55 113.718C120.18 113.976 120.946 113.951 121.891 114.654C126.107 117.79 129.681 123.194 129.979 129.624C130.171 133.498 129.532 135.691 127.552 137.799C126.53 138.906 124.848 139.693 123.592 139.693C121.783 139.693 119.356 138.608 117.546 137.032C115.652 135.372 113.288 131.518 112.416 128.58C110.414 122.045 112.181 115.828 116.503 114.168C117.674 113.699 118.936 113.594 119.55 113.718Z" fill="#3F2410"/>
<path d="M54.7223 56.1551C53.892 56.5809 53.4449 57.1557 52.5721 59.0291C51.4225 61.4561 51.7631 64.2875 53.3811 65.9481C54.6584 67.2254 56.1912 67.1828 57.4686 65.799C58.5117 64.6707 58.9375 63.1805 58.9801 60.6897C59.0014 57.5602 58.1924 56.1125 56.2338 55.8996C55.7229 55.8358 55.1694 55.9422 54.7223 56.1551Z" fill="#3F2410"/>
</svg>
