<svg width="186" height="144" viewBox="0 0 186 144" fill="none" xmlns="http://www.w3.org/2000/svg">
<path d="M22.1863 24.5174C18.9863 22.9174 15.1863 23.5174 13.6863 24.0174L20.1863 30.5174L26.6863 37.5174L30.6863 38.0174L26.1863 43.0174L22.1863 61.5174L20.6863 70.0174L24.1863 69.5174L30.1863 66.5174L33.1863 64.0174L34.6863 60.0174L36.1863 53.5174L38.6863 46.5174L40.6863 42.0174L42.6863 39.0174L43.6863 39.5174L43.1863 45.0174L42.1863 49.5174V65.0174L44.6863 69.5174L47.6863 73.5174L54.1863 77.5174L42.6863 99.5174L41.6863 102.017C41.8529 102.851 41.9863 105.017 41.1863 107.017C40.1863 109.517 35.6863 109.017 35.1863 109.517C34.7863 109.917 31.3529 110.684 29.6863 111.017C28.8529 111.184 26.5863 111.717 24.1863 112.517C21.7863 113.317 20.5196 115.851 20.1863 117.017C20.0196 118.184 19.7863 120.717 20.1863 121.517C20.5863 122.317 22.6863 124.517 23.6863 125.517L30.6863 124.517L38.1863 126.517L47.6863 128.517L66.1863 131.517L83.1863 129.517L78.1863 116.017L81.1863 109.517C81.8529 107.684 85.0863 104.717 86.6863 101.517C88.2863 98.3174 91.1863 93.8507 92.6863 92.5174L94.6863 86.0174L100.186 78.0174L107.686 72.5174L121.186 71.0174L133.186 74.0174L141.686 82.5174L146.186 72.5174L154.186 66.5174L164.686 65.5174L176.686 71.0174L172.686 64.0174L161.686 52.5174L143.686 41.5174L116.186 39.5174L97.1863 45.0174L78.1863 52.5174C77.6863 52.5174 74.6863 50.0174 74.1863 49.0174C73.6863 48.0174 71.6863 45.1841 72.1863 44.0174L76.6863 31.0174L83.6863 19.0174L92.6863 8.51741V3.51741L79.6863 12.0174L72.1863 21.0174L65.6863 25.5174H54.1863C53.3863 25.5174 41.1863 29.8507 35.1863 32.0174C32.1863 30.1841 25.3863 26.1174 22.1863 24.5174Z" fill="#F4B670"/>
<path d="M12.1863 46.5174C11.3529 43.1841 9.68626 34.3174 9.68626 25.5174H13.6863L22.6863 32.0174L28.1863 39.5174L19.6863 59.0174L15.1863 53.5174L12.1863 46.5174Z" fill="#FFF7F1"/>
<path d="M43.1863 45.0174V39.5174H42.6863L40.6863 42.0174L38.1863 47.0174L34.1863 62.0174L32.1863 65.0174C31.3529 65.6841 29.3863 67.1174 28.1863 67.5174L23.6863 70.0174L20.6863 69.0174L9.68626 74.0174L5.68626 85.5174L9.68626 94.0174L23.6863 101.517H36.6863L42.1863 99.5174L46.1863 91.5174L53.1863 78.0174L46.1863 71.5174L42.1863 65.0174L41.1863 55.5174L43.1863 45.0174Z" fill="#FFF7F1"/>
<path d="M87.1863 14.0174L96.6863 3.01741L100.686 8.51741V17.0174L99.1863 39.0174L97.1863 44.0174C93.1863 46.0174 84.9863 50.8174 80.1863 52.0174C77.6863 52.5174 76.1863 52.0174 74.1863 50.5174C72.8669 49.5279 72.0196 46.3507 72.1863 45.0174L77.6863 28.5174L87.1863 14.0174Z" fill="#FFF7F1"/>
<path d="M129.186 72.5174L142.186 82.5174L144.186 77.5174C145.52 74.3507 148.786 67.7174 151.186 66.5174C154.186 65.0174 157.186 65.5174 162.686 65.0174C167.086 64.6174 172.186 67.5174 174.186 69.0174C175.353 70.3507 178.286 74.0174 180.686 78.0174C183.086 82.0174 183.686 90.6841 183.686 94.5174L180.686 116.017L182.686 125.017L179.686 133.517L169.686 136.517L161.686 128.517L156.686 131.017L152.686 132.517L146.186 131.017L143.686 128.517L140.686 131.017L136.686 132.517L132.186 133.517L130.686 136.017L127.186 140.517L118.686 139.517L111.186 135.017H90.6863L79.6863 121.517L81.6863 109.017C85.2024 99.977 87.6035 95.3897 94.1863 89.5174L101.686 79.0174L107.186 74.5174L117.686 71.5174L129.186 72.5174Z" fill="#FFF7F1"/>
<path d="M124.874 123.109C125.965 125.769 124.89 128.73 122.472 129.722C120.055 130.713 117.21 129.361 116.119 126.7C115.027 124.04 116.102 121.079 118.52 120.087C120.937 119.095 123.782 120.448 124.874 123.109Z" fill="#FFA2A2"/>
<path d="M174.45 119.191C175.542 121.852 174.467 124.813 172.049 125.804C169.631 126.796 166.787 125.443 165.695 122.783C164.604 120.123 165.679 117.162 168.097 116.17C170.514 115.178 173.359 116.531 174.45 119.191Z" fill="#FFA2A2"/>
<path d="M120.013 132.22C120.446 133.084 120.097 134.136 119.233 134.569C118.369 135.002 117.317 134.653 116.884 133.789C116.451 132.925 116.8 131.873 117.664 131.44C118.528 131.007 119.58 131.356 120.013 132.22Z" fill="#FFA2A2"/>
<path d="M124.71 134.122C125.143 134.986 124.794 136.038 123.93 136.471C123.066 136.904 122.014 136.555 121.581 135.691C121.148 134.827 121.497 133.775 122.361 133.342C123.225 132.909 124.277 133.258 124.71 134.122Z" fill="#FFA2A2"/>
<path d="M128.414 130.282C128.847 131.146 128.498 132.197 127.634 132.63C126.77 133.063 125.718 132.714 125.285 131.85C124.852 130.986 125.201 129.935 126.065 129.501C126.929 129.068 127.981 129.418 128.414 130.282Z" fill="#FFA2A2"/>
<path d="M169.236 127.922C169.669 128.786 169.32 129.837 168.456 130.27C167.592 130.703 166.54 130.354 166.107 129.49C165.674 128.626 166.023 127.575 166.887 127.142C167.751 126.708 168.803 127.058 169.236 127.922Z" fill="#FFA2A2"/>
<path d="M174.43 128.702C174.864 129.566 174.514 130.617 173.65 131.05C172.786 131.484 171.735 131.134 171.302 130.27C170.868 129.406 171.218 128.355 172.082 127.922C172.946 127.489 173.997 127.838 174.43 128.702Z" fill="#FFA2A2"/>
<path d="M178.251 125.573C178.684 126.437 178.335 127.488 177.471 127.922C176.607 128.355 175.555 128.006 175.122 127.141C174.689 126.277 175.038 125.226 175.902 124.793C176.766 124.36 177.818 124.709 178.251 125.573Z" fill="#FFA2A2"/>
<path d="M95.6984 0.714478C92.5263 1.20413 85.9267 4.78069 81.0515 8.71916C77.3259 11.6996 72.4294 16.958 68.5122 22.1739C67.2136 23.8557 67.1284 23.9408 66.4898 23.7918C63.5093 23.1532 57.9529 23.068 54.5679 23.6002C48.4367 24.5582 42.497 26.6658 36.9406 29.8379C36.3658 30.1785 36.3445 30.1572 35.2374 29.0928C33.0234 26.9426 30.8306 25.7717 25.7212 24.026C20.7396 22.3016 17.6314 21.7055 13.8845 21.6842C11.2234 21.6629 10.8189 21.7055 10.0525 22.1313C6.58236 24.0047 5.79466 28.4328 7.39134 37.2252C9.07318 46.4647 12.2665 53.2772 17.5249 58.8123C18.8236 60.1961 18.8236 60.1961 18.9939 61.7715C19.1216 63.1979 19.4835 65.4758 19.8454 67.2428C19.9945 67.8815 19.9945 67.8815 17.8868 68.8182C15.2044 69.9891 13.5652 70.5213 8.45579 71.82C6.17787 72.416 3.89994 73.0334 3.389 73.225C1.45169 73.9489 0.791733 75.3114 0.791733 78.5686C0.791733 84.1676 2.4097 89.6176 5.11341 93.1942C9.26478 98.6868 16.354 102.498 23.6775 103.2C24.5077 103.285 25.4658 103.413 25.8064 103.477C26.8921 103.711 34.2369 103.605 35.6845 103.328C37.2386 103.03 39.4314 102.306 40.1339 101.859C40.3894 101.689 40.6661 101.582 40.7087 101.646C40.8152 101.752 40.432 105.073 40.2191 105.861C40.0913 106.308 39.6869 106.521 37.5154 107.288C35.9613 107.82 33.7046 108.416 31.7673 108.756C27.765 109.459 24.2949 110.374 22.762 111.141C19.7603 112.61 17.972 115.612 18.0146 119.146C18.0572 122.829 19.8242 126.299 22.315 127.576C24.6142 128.768 27.9779 128.96 29.8513 127.981L30.9158 127.448L32.2357 128.066C33.7898 128.768 34.471 128.811 37.9837 128.428L40.581 128.151L41.5603 128.811C43.6892 130.216 50.4378 131.94 57.5484 132.877C67.0859 134.154 77.1556 133.878 82.3714 132.217L83.7765 131.77L85.139 132.941C90.3335 137.412 95.6558 139.264 102.66 139.008C106.364 138.859 107.535 138.54 109.558 137.135L111.133 136.028L112.091 137.177C115.604 141.371 119.095 143.436 122.991 143.692C127.802 144.011 131.592 141.222 133.444 135.985L133.806 134.921H135.701C138.34 134.899 140.299 134.048 142.79 131.876L143.854 130.94L144.663 131.578C146.494 133.026 148.751 133.856 151.752 134.176C154.903 134.495 158.288 133.792 159.544 132.536L160.226 131.855L161.247 133.069C164.079 136.454 167.506 138.348 171.275 138.582C176.171 138.923 180.727 135.836 182.813 130.833C183.878 128.279 184.154 126.618 184.027 123.318C183.942 120.955 183.814 120.125 183.345 118.635C183.026 117.634 182.749 116.527 182.749 116.186C182.749 115.824 183.047 114.483 183.409 113.206C185.474 105.925 186.219 96.6217 185.368 88.9364C184.516 81.251 181.919 73.0121 178.3 66.5828C175.767 62.0909 173.063 58.5782 168.997 54.5332C153.072 38.6729 127.866 33.2868 102.511 40.376C100.765 40.8657 100.637 40.8657 100.637 40.5037C100.637 40.2908 101.106 38.8432 101.659 37.2891C103.043 33.4783 103.32 32.3713 103.746 29.1141C104.001 27.1981 104.108 24.7924 104.129 21.2371C104.129 15.3401 103.81 13.0196 102.341 8.54886C101.51 5.99417 99.871 2.46017 99.1898 1.69377C98.4234 0.820923 97.1886 0.480301 95.6984 0.714478ZM97.8699 8.93205C98.6576 11.7635 98.913 13.0834 99.1259 15.7658C99.3175 18.0438 99.1259 24.8563 98.7214 29.8592C98.3382 34.3938 97.0183 41.7811 96.5286 42.1643C96.3796 42.2707 95.23 42.7604 93.9314 43.25C90.5464 44.57 83.9681 47.8485 80.6257 49.8709C79.0503 50.8289 77.4111 51.8295 77.0066 52.0637C75.8144 52.7662 70.9179 56.4492 68.7038 58.2801C66.0214 60.5367 59.8476 66.6893 57.6548 69.3504C56.6755 70.5213 55.2066 72.416 54.355 73.5444C53.5247 74.694 52.737 75.6094 52.6093 75.6307C52.3326 75.6307 48.9902 73.0121 47.6702 71.7135C45.7968 69.9252 43.8595 66.2848 43.2421 63.4746C42.5609 60.2174 42.6886 55.3848 43.6892 48.1678C44.3492 43.2713 44.4343 42.5688 44.4343 41.1211C44.4343 39.1625 44.0511 38.3748 43.0931 38.3748C41.8796 38.3748 40.4533 40.5676 38.1753 45.8686C36.898 48.8703 35.8974 52.1276 34.8329 56.7899C33.662 61.8992 33.1085 63.3256 31.7673 64.6881C31.1925 65.2629 30.0429 66.1358 29.2126 66.5828C27.6585 67.4557 23.8691 68.8182 23.0175 68.8182C22.5704 68.8182 22.5279 68.7756 22.7408 68.2434C22.8472 67.9241 23.124 66.6254 23.3581 65.3481C23.7626 62.9211 24.2097 61.8993 24.2097 63.3469C24.2097 64.2198 24.6781 65.4971 25.2103 66.0932C25.5935 66.5403 26.7431 66.7957 27.3818 66.5828C28.0417 66.3912 28.4036 65.71 28.8933 63.9004C29.4681 61.7715 29.4681 59.153 28.8933 58.2375C28.1908 57.0666 26.3812 57.0241 25.189 58.1311L24.5716 58.7059L24.7206 57.535C25.2316 53.341 27.5521 46.9756 29.8726 43.3139C35.4929 34.4789 47.6702 28.369 62.1681 27.0703C63.6796 26.9426 64.957 26.8787 64.9995 26.9426C65.0421 26.9852 64.6589 27.9432 64.1267 29.0502C62.9345 31.4772 62.679 33.0951 63.3177 33.8828C63.6796 34.3086 63.7861 34.3512 64.1906 34.1383C64.4673 33.9893 65.2124 33.0526 65.8511 32.0307C68.4697 27.9645 70.8115 24.6008 72.4507 22.5358C76.0273 18.1076 80.4554 13.6795 83.9894 11.061C86.0544 9.50685 90.6103 6.67542 91.0361 6.65413C91.1851 6.65413 90.5251 7.52698 89.5458 8.57014C86.8634 11.4655 85.6499 12.8918 83.6062 15.6168C80.349 19.9811 78.5607 23.3022 75.8783 30.0721C73.1533 36.9485 72.3443 39.6096 71.812 43.1649C71.514 45.2086 71.6204 45.826 72.3017 45.826C72.8765 45.826 73.0681 45.4854 73.6003 43.4842C74.9202 38.5026 78.0497 31.4346 81.4347 25.8143C84.841 20.1301 87.6724 16.1703 92.2921 10.6565C93.7824 8.86818 95.2939 7.01604 95.6345 6.54768C95.9964 6.07933 96.3583 5.63225 96.4861 5.54709C96.7415 5.35548 97.1247 6.27092 97.8699 8.93205ZM19.0152 26.453C22.5492 27.1768 27.9779 28.9651 30.8732 30.3276C32.3634 31.0514 33.5769 31.6901 33.5769 31.7539C33.5769 31.8391 32.6615 32.6481 31.5331 33.5848C30.4048 34.5002 29.2339 35.586 28.9146 35.9692C28.6165 36.3524 28.2546 36.6717 28.1269 36.6717C27.9992 36.6717 27.4243 36.0756 26.8495 35.3305C24.5503 32.4139 19.1216 27.4748 17.2482 26.602C16.9714 26.4743 16.7585 26.3039 16.7585 26.1975C16.7585 25.9846 16.5882 25.9633 19.0152 26.453ZM17.0992 30.7108C20.5054 33.2016 23.9329 36.1395 25.3593 37.8213L26.3812 39.0135L25.3167 40.5676C22.7195 44.3358 20.2712 50.5735 19.6326 55.0867C19.3771 56.7473 19.2281 56.875 18.6107 55.917C16.6734 52.8301 13.9697 45.7409 12.5007 39.9076C11.2872 35.0112 10.755 31.9668 10.7124 29.6463C10.6699 26.453 10.6699 26.4742 12.6072 27.6451C13.48 28.1774 15.5025 29.5612 17.0992 30.7108ZM41.9861 44.3783C40.8365 50.2541 40.6023 51.9785 40.4533 56.0873C40.2617 61.4309 40.73 64.4326 42.2628 67.7963C43.9021 71.3942 46.2226 74.0766 49.5437 76.1842C50.6081 76.8442 51.4597 77.4828 51.4597 77.5893C51.4597 77.717 51.2894 78.0576 51.0552 78.3557C48.3728 82.209 44.5408 90.1073 42.5183 95.9192C41.9435 97.5584 41.8583 97.6862 40.879 98.2397C38.3669 99.6661 37.3025 99.9428 34.1091 99.9215C31.597 99.9215 28.0417 99.5596 27.765 99.2828C27.6585 99.1764 28.1056 98.8145 28.723 98.4739C29.3404 98.1119 30.3622 97.3668 30.9796 96.8133C31.9376 95.9405 32.1079 95.7063 32.0441 95.1315C31.9589 94.1948 31.299 94.1735 30.0216 95.0676C28.0204 96.5153 24.5077 97.7713 22.464 97.7713C19.9093 97.7713 14.438 94.9399 11.3511 92.0446C10.1163 90.8737 8.88158 89.3621 8.88158 89.0215C8.88158 88.9364 9.2222 88.6809 9.62669 88.4893C12.4581 87.1481 14.5019 83.2735 14.1187 79.9524C13.9697 78.6112 13.2884 76.7164 12.6923 75.9713C12.4368 75.652 12.2878 75.2901 12.3517 75.141C12.4156 74.992 13.0968 74.6514 13.8845 74.3746C15.7792 73.7147 18.0146 72.6077 19.5687 71.5858C20.4415 70.9897 21.0589 70.7342 21.5699 70.7342C22.7195 70.7342 25.2103 70.1168 26.9773 69.393C28.9359 68.6053 30.49 67.6047 32.1292 66.0932C33.9175 64.4326 34.6201 62.836 36.0251 57.1731C37.4515 51.4463 38.154 49.3174 39.772 45.5492C41.3687 41.9088 42.3906 40.078 42.6673 40.376C42.7312 40.4186 42.4118 42.2282 41.9861 44.3783ZM133.423 42.7178C144.003 44.3145 152.753 47.8698 160.545 53.703C163.014 55.5551 167.166 59.4936 169.06 61.7715C170.551 63.6024 172.552 66.3274 172.743 66.8383C172.829 67.0512 172.126 66.7744 170.87 66.0932C168.443 64.7946 165.633 63.8366 163.227 63.4746C160.971 63.1553 157.33 63.3469 154.946 63.9217C149.155 65.3268 144.386 70.1807 142.13 76.9719C141.768 78.0576 141.427 78.9731 141.406 79.0157C141.363 79.0369 140.618 78.377 139.767 77.5041C136.19 73.885 131.272 71.3942 124.694 69.8401C122.948 69.4356 122.054 69.3717 118.094 69.3717C114.028 69.3504 113.304 69.4143 111.601 69.8401C109.259 70.4362 105.513 72.2244 103.511 73.736C99.871 76.461 96.4009 80.9104 93.9527 85.9346C91.9728 90.0434 91.6109 91.1717 91.6109 93.62C91.6109 95.1315 91.7173 95.9618 91.9515 96.494C92.356 97.3668 92.3986 97.303 92.8669 95.025C93.4843 92.002 94.7617 89.3621 97.7208 84.9127C101.255 79.5905 106.535 75.2901 111.431 73.7147C117.839 71.6496 126.674 72.927 133.316 76.8655C135.509 78.1641 138.404 80.9955 139.447 82.8903C140.512 84.8063 141.108 85.3172 142.215 85.2959C143.599 85.2534 144.025 84.5721 144.983 80.8039C147.026 72.7567 151.029 68.286 157.181 67.2215C163.674 66.0932 169.912 68.1795 175.532 73.3953C177.001 74.7579 177.576 75.6946 178.428 78.2918C180.684 85.0405 181.642 92.7684 181.153 100.177C180.918 103.775 180.088 109.416 179.62 110.63L179.386 111.247L178.492 110.396C175.66 107.649 171.934 106.266 168.102 106.564C166.016 106.713 164.696 107.16 163.057 108.224C157.777 111.694 155.67 119.806 158.139 127.214C158.48 128.257 158.757 129.173 158.757 129.258C158.757 129.641 155.031 130.556 153.519 130.556C150.475 130.556 147.367 129.322 145.983 127.576C144.812 126.107 143.13 126.235 142.258 127.874C141.023 130.216 137.233 132.643 135.104 132.43L134.381 132.366L134.253 129.684C133.891 122.062 129.527 114.696 123.651 111.758L121.706 110.81L120.308 110.517H118.686C115.323 110.56 115.008 110.885 113.688 111.567C110.324 113.312 108.003 117.272 107.556 122.083C107.301 124.872 108.003 128.981 109.302 132.217C109.643 133.09 109.77 133.643 109.643 133.771C109.366 134.048 105.427 134.282 101.383 134.261C95.8048 134.239 92.5476 133.047 88.3536 129.492C85.6286 127.15 84.6919 125.788 82.712 121.189C81.2431 117.783 80.8812 114.568 81.6902 112.014C82.1372 110.566 83.6062 107.969 84.7132 106.67C85.0751 106.223 85.3306 105.797 85.2454 105.733C84.99 105.478 83.223 106.287 82.1798 107.139C79.8593 108.969 78.22 111.78 77.5601 115.058C76.815 118.698 77.4749 122.296 79.689 126.746L80.3915 128.172L79.7103 128.321C79.3271 128.385 75.8995 128.513 72.0888 128.577C63.5945 128.704 59.9966 128.428 45.2859 126.49C44.2853 126.363 43.1357 126.128 42.7312 125.979C42.3267 125.809 41.1558 125.639 40.1552 125.575C36.9406 125.383 34.7478 124.638 33.2576 123.233C32.0441 122.083 31.3628 122.041 29.4894 123.084C27.6798 124.063 26.6792 124.191 25.0613 123.574C23.8478 123.105 23.2943 122.254 22.8046 120.21C22.4853 118.848 22.464 118.464 22.6982 117.613C23.0388 116.335 23.7413 115.42 24.9335 114.717C25.4658 114.398 28.0843 113.525 30.7454 112.759C37.6644 110.8 40.3255 109.757 43.9021 107.607C45.8394 106.457 48.5218 104.371 48.4154 104.094C48.2663 103.647 46.329 103.839 44.8601 104.435C44.115 104.733 43.4763 104.967 43.4337 104.924C43.3911 104.903 43.9021 103.243 44.562 101.263C47.4361 92.5129 50.7146 85.9985 56.2923 77.9725C58.5702 74.694 63.9564 68.6053 67.2562 65.5823C81.307 52.6811 98.4872 44.5487 115.753 42.6326C116.86 42.5262 118.073 42.3772 118.414 42.3346C120.032 42.1004 131.294 42.3985 133.423 42.7178ZM172.062 110.736C174.553 111.907 176.554 113.972 177.981 116.825C180.408 121.743 179.833 128.513 176.682 131.749C175.426 133.069 173.808 133.75 171.998 133.75C171.211 133.75 170.125 133.601 169.593 133.431C165.633 132.047 162.312 126.98 161.822 121.551C161.673 119.848 161.993 117.357 162.525 115.867C164.185 111.332 168.486 109.033 172.062 110.736ZM119.736 113.736C120.367 113.993 121.132 113.968 122.078 114.671C126.293 117.807 129.867 123.212 130.165 129.641C130.357 133.516 129.718 135.708 127.738 137.816C126.717 138.923 125.035 139.711 123.779 139.711C121.969 139.711 119.542 138.625 117.733 137.05C115.838 135.389 113.475 131.536 112.602 128.598C110.601 122.062 112.368 115.846 116.689 114.185C117.86 113.717 119.122 113.611 119.736 113.736Z" fill="#3F2410"/>
<path d="M54.9085 56.1725C54.0783 56.5983 53.6312 57.1731 52.7583 59.0465C51.6087 61.4735 51.9494 64.3049 53.5673 65.9655C54.8447 67.2428 56.3775 67.2002 57.6548 65.8164C58.698 64.6881 59.1238 63.1979 59.1664 60.7071C59.1877 57.5776 58.3787 56.1299 56.4201 55.917C55.9091 55.8532 55.3556 55.9596 54.9085 56.1725Z" fill="#3F2410"/>
</svg>
